<svg xmlns="http://www.w3.org/2000/svg" xmlns:xlink="http://www.w3.org/1999/xlink" width="840" height="581.04"><rect width="840" height="581.04" rx="5" ry="5" class="a"/><svg y="0%" x="0%"><circle cx="20" cy="20" r="6" fill="#ff5f58"/><circle cx="40" cy="20" r="6" fill="#ffbd2e"/><circle cx="60" cy="20" r="6" fill="#18c132"/></svg><svg height="521.04" viewBox="0 0 80 52.104" width="800" x="15" xmlns="http://www.w3.org/2000/svg" xmlns:xlink="http://www.w3.org/1999/xlink" y="50"><style>@keyframes i{0%{transform:translateX(-1120px)}88.5%{transform:translateX(-80px)}40.9%{transform:translateX(-160px)}80.3%{transform:translateX(-240px)}43.3%{transform:translateX(-320px)}50.7%{transform:translateX(-400px)}.1%{transform:translateX(-560px)}91.9%{transform:translateX(-720px)}31%{transform:translateX(-800px)}79.9%{transform:translateX(-880px)}61.3%{transform:translateX(-960px)}}.a{fill:#282d35}.f{fill:#b9c0cb;white-space:pre}</style><g font-family="Monaco,Consolas,Menlo,'Bitstream Vera Sans Mono','Powerline Symbols',monospace" font-size="1.67"><defs><symbol id="1"><text y="1.67" class="f">$</text><text x="2.004" y="1.67" class="f">cat</text><text x="6.012" y="1.67" class="f">llm_config.py</text></symbol><symbol id="2"><text y="1.67" class="f">#</text><text x="2.004" y="1.67" class="f">LLM</text><text x="6.012" y="1.67" class="f">integration</text><text x="18.036" y="1.67" class="f">—</text><text x="20.04" y="1.67" class="f">hotfixed</text><text x="29.058" y="1.67" class="f">at</text><text x="32.064" y="1.67" class="f">2am,</text><text x="37.074" y="1.67" class="f">secrets</text><text x="45.09" y="1.67" class="f">still</text><text x="51.102" y="1.67" class="f">in</text><text x="54.108" y="1.67" class="f">here</text></symbol><symbol id="3"><text y="1.67" class="f">ANTHROPIC_API_KEY</text><text x="18.036" y="1.67" class="f">=</text><text x="20.04" y="1.67" class="f">&quot;sk-ant-api03-EXAMPLEkeyDEMOcontextdutyXXXXXXXXXXXXXXXXXXXXX</text></symbol><symbol id="4"><text y="1.67" class="f">XXX-XXXXXXXX&quot;</text></symbol><symbol id="5"><text y="1.67" class="f">OPENAI_API_KEY</text><text x="17.034" y="1.67" class="f">=</text><text x="19.038" y="1.67" class="f">&quot;sk-EXAMPLEcontextdutyDEMOkeyXXXXXXXXXXXXXXXXXXXXXXXX&quot;</text></symbol><symbol id="6"><text y="1.67" class="f">DATABASE_URL</text><text x="17.034" y="1.67" class="f">=</text><text x="19.038" y="1.67" class="f">&quot;postgresql://admin:p4ssw0rd!@prod-db.us-east-1.rds.amazonaws</text></symbol><symbol id="7"><text y="1.67" class="f">.com:5432/app&quot;</text></symbol><symbol id="8"><text y="1.67" class="f">$</text><text x="2.004" y="1.67" class="f">git</text><text x="6.012" y="1.67" class="f">add</text><text x="10.02" y="1.67" class="f">llm_config.py</text></symbol><symbol id="9"><text y="1.67" class="f">$</text><text x="2.004" y="1.67" class="f">git</text><text x="6.012" y="1.67" class="f">commit</text><text x="13.026" y="1.67" class="f">-m</text><text x="16.032" y="1.67" class="f">&apos;add</text><text x="21.042" y="1.67" class="f">LLM</text><text x="25.05" y="1.67" class="f">config&apos;</text></symbol><symbol id="10"><text x="2.004" y="1.67" class="f">\U0001F6AB</text><text x="13.026" y="1.67" class="f">BLOCKED</text><text x="22.044" y="1.67" class="f">llm_config.py</text><text x="37.074" y="1.67" class="f">(3</text><text x="40.08" y="1.67" class="f">finding(s)</text><text x="51.102" y="1.67" class="f">detected)</text></symbol><symbol id="11"><text y="1.67" class="f">❌</text><text x="2.004" y="1.67" class="f">Commit</text><text x="9.018" y="1.67" class="f">rejected</text><text x="18.036" y="1.67" class="f">—</text><text x="20.04" y="1.67" class="f">ContextDuty</text><text x="32.064" y="1.67" class="f">detected</text><text x="41.082" y="1.67" class="f">sensitive</text><text x="51.102" y="1.67" class="f">data.</text></symbol><symbol id="12"><text x="3.006" y="1.67" class="f">Run:</text><text x="8.016" y="1.67" class="f">contextduty</text><text x="20.04" y="1.67" class="f">redact</text><text x="27.054" y="1.67" class="f">--in</text><text x="32.064" y="1.67" class="f">&lt;file&gt;</text><text x="39.078" y="1.67" class="f">--out</text><text x="45.09" y="1.67" class="f">&lt;file&gt;</text></symbol><symbol id="13"><text y="1.67" class="f">(commit</text><text x="8.016" y="1.67" class="f">aborted</text><text x="16.032" y="1.67" class="f">—</text><text x="18.036" y="1.67" class="f">exit</text><text x="23.046" y="1.67" class="f">1)</text></symbol><symbol id="14"><text y="1.67" class="f">$</text><text x="2.004" y="1.67" class="f">contextduty</text><text x="14.028" y="1.67" class="f">redact</text><text x="21.042" y="1.67" class="f">--in</text><text x="26.052" y="1.67" class="f">llm_config.py</text><text x="40.08" y="1.67" class="f">--out</text><text x="46.092" y="1.67" class="f">llm_config.py</text></symbol><symbol id="15"><text y="1.67" class="f">ANTHROPIC_API_KEY</text><text x="18.036" y="1.67" class="f">=</text><text x="20.04" y="1.67" class="f">&quot;&lt;ANTHROPIC_KEY_78a8f6c3c8&gt;&quot;</text></symbol><symbol id="16"><text y="1.67" class="f">OPENAI_API_KEY</text><text x="17.034" y="1.67" class="f">=</text><text x="19.038" y="1.67" class="f">&quot;&lt;OPENAI_KEY_275dd184c2&gt;&quot;</text></symbol><symbol id="17"><text y="1.67" class="f">DATABASE_URL</text><text x="17.034" y="1.67" class="f">=</text><text x="19.038" y="1.67" class="f">&quot;&lt;DB_DSN_5069eedad7&gt;&quot;</text></symbol><symbol id="18"><text y="1.67" class="f">$</text><text x="2.004" y="1.67" class="f">git</text><text x="6.012" y="1.67" class="f">commit</text><text x="13.026" y="1.67" class="f">-m</text><text x="16.032" y="1.67" class="f">&apos;add</text><text x="21.042" y="1.67" class="f">LLM</text><text x="25.05" y="1.67" class="f">config</text><text x="32.064" y="1.67" class="f">(redacted)&apos;</text></symbol><symbol id="19"><text y="1.67" class="f">[main</text><text x="6.012" y="1.67" class="f">(root-commit)</text><text x="20.04" y="1.67" class="f">a73b43d]</text><text x="29.058" y="1.67" class="f">add</text><text x="33.066" y="1.67" class="f">LLM</text><text x="37.074" y="1.67" class="f">config</text><text x="44.088" y="1.67" class="f">(redacted)</text></symbol><symbol id="20"><text x="1.002" y="1.67" class="f">1</text><text x="3.006" y="1.67" class="f">file</text><text x="8.016" y="1.67" class="f">changed,</text><text x="17.034" y="1.67" class="f">4</text><text x="19.038" y="1.67" class="f">insertions(+)</text></symbol><symbol id="21"><text x="1.002" y="1.67" class="f">create</text><text x="8.016" y="1.67" class="f">mode</text><text x="13.026" y="1.67" class="f">100644</text><text x="20.04" y="1.67" class="f">llm_config.py</text></symbol><symbol id="a"><path fill="transparent" d="M0 0h80v24H0z"/></symbol><symbol id="b"><path fill="#6f7683" d="M0 0h1.102v2.171H0z"/></symbol></defs><path class="a" d="M0 0h80v52.104H0z"/><g style="animation-duration:1.0070000000000001s;animation-iteration-count:infinite;animation-name:i;animation-timing-function:steps(1,end)"><svg width="1200"><svg><use xlink:href="#a"/><use xlink:href="#b" x="-.004"/></svg><svg x="80"><use xlink:href="#a"/><use xlink:href="#b" x="-.004" y="4.317"/><use xlink:href="#1" y="2.171"/></svg><svg x="160"><use xlink:href="#a"/><use xlink:href="#b" x="-.004" y="17.343"/><use xlink:href="#1" y="2.171"/><use xlink:href="#2" y="4.342"/><use xlink:href="#3" y="6.513"/><use xlink:href="#4" y="8.684"/><use xlink:href="#5" y="10.855"/><use xlink:href="#6" y="13.026"/><use xlink:href="#7" y="15.197"/></svg><svg x="240"><use xlink:href="#a"/><use xlink:href="#b" x="-.004" y="21.685"/><use xlink:href="#1" y="2.171"/><use xlink:href="#2" y="4.342"/><use xlink:href="#3" y="6.513"/><use xlink:href="#4" y="8.684"/><use xlink:href="#5" y="10.855"/><use xlink:href="#6" y="13.026"/><use xlink:href="#7" y="15.197"/><use xlink:href="#8" y="19.539"/></svg><svg x="320"><use xlink:href="#a"/><use xlink:href="#b" x="-.004" y="23.856"/><use xlink:href="#1" y="2.171"/><use xlink:href="#2" y="4.342"/><use xlink:href="#3" y="6.513"/><use xlink:href="#4" y="8.684"/><use xlink:href="#5" y="10.855"/><use xlink:href="#6" y="13.026"/><use xlink:href="#7" y="15.197"/><use xlink:href="#8" y="19.539"/><use xlink:href="#9" y="21.71"/></svg><svg x="400"><use xlink:href="#a"/><use xlink:href="#b" x="-.004" y="26.027"/><use xlink:href="#1" y="2.171"/><use xlink:href="#2" y="4.342"/><use xlink:href="#3" y="6.513"/><use xlink:href="#4" y="8.684"/><use xlink:href="#5" y="10.855"/><use xlink:href="#6" y="13.026"/><use xlink:href="#7" y="15.197"/><use xlink:href="#8" y="19.539"/><use xlink:href="#9" y="21.71"/><use xlink:href="#10" y="23.881"/></svg><svg x="480"><use xlink:href="#a"/><use xlink:href="#b" x="-.004" y="28.198"/><use xlink:href="#1" y="2.171"/><use xlink:href="#2" y="4.342"/><use xlink:href="#3" y="6.513"/><use xlink:href="#4" y="8.684"/><use xlink:href="#5" y="10.855"/><use xlink:href="#6" y="13.026"/><use xlink:href="#7" y="15.197"/><use xlink:href="#8" y="19.539"/><use xlink:href="#9" y="21.71"/><use xlink:href="#10" y="23.881"/></svg><svg x="560"><use xlink:href="#a"/><use xlink:href="#b" x="-.004" y="32.54"/><use xlink:href="#1" y="2.171"/><use xlink:href="#2" y="4.342"/><use xlink:href="#3" y="6.513"/><use xlink:href="#4" y="8.684"/><use xlink:href="#5" y="10.855"/><use xlink:href="#6" y="13.026"/><use xlink:href="#7" y="15.197"/><use xlink:href="#8" y="19.539"/><use xlink:href="#9" y="21.71"/><use xlink:href="#10" y="23.881"/><use xlink:href="#11" y="28.223"/><use xlink:href="#12" y="30.394"/></svg><svg x="640"><use xlink:href="#a"/><use xlink:href="#b" x="-.004" y="36.882"/><use xlink:href="#1" y="2.171"/><use xlink:href="#2" y="4.342"/><use xlink:href="#3" y="6.513"/><use xlink:href="#4" y="8.684"/><use xlink:href="#5" y="10.855"/><use xlink:href="#6" y="13.026"/><use xlink:href="#7" y="15.197"/><use xlink:href="#8" y="19.539"/><use xlink:href="#9" y="21.71"/><use xlink:href="#10" y="23.881"/><use xlink:href="#11" y="28.223"/><use xlink:href="#12" y="30.394"/><use xlink:href="#13" y="34.736"/></svg><svg x="720"><use xlink:href="#a"/><use xlink:href="#b" x="-.004" y="45.566"/><use xlink:href="#1" y="2.171"/><use xlink:href="#2" y="4.342"/><use xlink:href="#3" y="6.513"/><use xlink:href="#4" y="8.684"/><use xlink:href="#5" y="10.855"/><use xlink:href="#6" y="13.026"/><use xlink:href="#7" y="15.197"/><use xlink:href="#8" y="19.539"/><use xlink:href="#9" y="21.71"/><use xlink:href="#10" y="23.881"/><use xlink:href="#11" y="28.223"/><use xlink:href="#12" y="30.394"/><use xlink:href="#13" y="34.736"/><use xlink:href="#14" y="39.078"/><use xlink:href="#1" y="43.42"/></svg><svg x="800"><use xlink:href="#a"/><use xlink:href="#b" x="-.004" y="49.908"/><use xlink:href="#2"/><use xlink:href="#3" y="2.171"/><use xlink:href="#4" y="4.342"/><use xlink:href="#5" y="6.513"/><use xlink:href="#6" y="8.684"/><use xlink:href="#7" y="10.855"/><use xlink:href="#8" y="15.197"/><use xlink:href="#9" y="17.368"/><use xlink:href="#10" y="19.539"/><use xlink:href="#11" y="23.881"/><use xlink:href="#12" y="26.052"/><use xlink:href="#13" y="30.394"/><use xlink:href="#14" y="34.736"/><use xlink:href="#1" y="39.078"/><use xlink:href="#2" y="41.249"/><use xlink:href="#15" y="43.42"/><use xlink:href="#16" y="45.591"/><use xlink:href="#17" y="47.762"/></svg><svg x="880"><use xlink:href="#a"/><use xlink:href="#b" x="-.004" y="49.908"/><use xlink:href="#4"/><use xlink:href="#5" y="2.171"/><use xlink:href="#6" y="4.342"/><use xlink:href="#7" y="6.513"/><use xlink:href="#8" y="10.855"/><use xlink:href="#9" y="13.026"/><use xlink:href="#10" y="15.197"/><use xlink:href="#11" y="19.539"/><use xlink:href="#12" y="21.71"/><use xlink:href="#13" y="26.052"/><use xlink:href="#14" y="30.394"/><use xlink:href="#1" y="34.736"/><use xlink:href="#2" y="36.907"/><use xlink:href="#15" y="39.078"/><use xlink:href="#16" y="41.249"/><use xlink:href="#17" y="43.42"/><use xlink:href="#18" y="47.762"/></svg><svg x="960"><use xlink:href="#a"/><use xlink:href="#b" x="-.004" y="49.908"/><use xlink:href="#5"/><use xlink:href="#6" y="2.171"/><use xlink:href="#7" y="4.342"/><use xlink:href="#8" y="8.684"/><use xlink:href="#9" y="10.855"/><use xlink:href="#10" y="13.026"/><use xlink:href="#11" y="17.368"/><use xlink:href="#12" y="19.539"/><use xlink:href="#13" y="23.881"/><use xlink:href="#14" y="28.223"/><use xlink:href="#1" y="32.565"/><use xlink:href="#2" y="34.736"/><use xlink:href="#15" y="36.907"/><use xlink:href="#16" y="39.078"/><use xlink:href="#17" y="41.249"/><use xlink:href="#18" y="45.591"/><use xlink:href="#19" y="47.762"/></svg><svg x="1040"><use xlink:href="#a"/><use xlink:href="#b" x="-.004" y="49.908"/><use xlink:href="#7"/><use xlink:href="#8" y="4.342"/><use xlink:href="#9" y="6.513"/><use xlink:href="#10" y="8.684"/><use xlink:href="#11" y="13.026"/><use xlink:href="#12" y="15.197"/><use xlink:href="#13" y="19.539"/><use xlink:href="#14" y="23.881"/><use xlink:href="#1" y="28.223"/><use xlink:href="#2" y="30.394"/><use xlink:href="#15" y="32.565"/><use xlink:href="#16" y="34.736"/><use xlink:href="#17" y="36.907"/><use xlink:href="#18" y="41.249"/><use xlink:href="#19" y="43.42"/><use xlink:href="#20" y="45.591"/><use xlink:href="#21" y="47.762"/></svg><svg x="1120"><use xlink:href="#a"/><use xlink:href="#b" x="-.004" y="49.908"/><use xlink:href="#8"/><use xlink:href="#9" y="2.171"/><use xlink:href="#10" y="4.342"/><use xlink:href="#11" y="8.684"/><use xlink:href="#12" y="10.855"/><use xlink:href="#13" y="15.197"/><use xlink:href="#14" y="19.539"/><use xlink:href="#1" y="23.881"/><use xlink:href="#2" y="26.052"/><use xlink:href="#15" y="28.223"/><use xlink:href="#16" y="30.394"/><use xlink:href="#17" y="32.565"/><use xlink:href="#18" y="36.907"/><use xlink:href="#19" y="39.078"/><use xlink:href="#20" y="41.249"/><use xlink:href="#21" y="43.42"/><text y="49.432" class="f">✅</text><text x="2.004" y="49.432" class="f">Done</text><text x="7.014" y="49.432" class="f">—</text><text x="9.018" y="49.432" class="f">zero</text><text x="14.028" y="49.432" class="f">secrets</text><text x="22.044" y="49.432" class="f">in</text><text x="25.05" y="49.432" class="f">git</text><text x="29.058" y="49.432" class="f">history.</text></svg></svg></g></g></svg></svg>